<?xml version="1.0" encoding="UTF-8" standalone="no"?>
<svg width="319px" height="96px" viewBox="0 0 319 96" version="1.1" xmlns="http://www.w3.org/2000/svg" xmlns:xlink="http://www.w3.org/1999/xlink">
    <!-- Generator: Sketch 3.8.3 (29802) - http://www.bohemiancoding.com/sketch -->
    <title>wearologie-logo</title>
    <desc>Created with Sketch.</desc>
    <defs></defs>
    <g id="Page-1" stroke="none" stroke-width="1" fill="none" fill-rule="evenodd">
        <g id="wearologie-logo" fill="#FFFFFF">
            <path d="M63.9263356,29.6601342 C64.9292886,29.9930201 65.8656644,30.1948993 66.7376107,30.1948993 C69.4157315,30.1948993 71.4903624,28.4531544 71.4903624,24.0354362 C71.4903624,17.205906 69.6841879,14.5299329 67.6074094,14.5299329 C64.5276779,14.5299329 62.6527785,20.2877852 62.6527785,30.1283221 C62.6527785,40.5057718 66.7376107,45.458255 72.5620403,45.458255 C76.1765369,45.458255 78.5862013,44.0536913 80.4611007,41.7793289 L80.5276779,41.845906 C79.1896913,44.7903356 75.1714362,48.2051007 67.7405638,48.2051007 C58.9029799,48.2051007 51.8758658,41.3755705 51.8758658,31.5350336 C51.8758658,22.965906 56.7617718,14.0595973 68.8122416,14.0595973 C75.1714362,14.0595973 80.5276779,16.7377181 80.5276779,22.7640268 C80.5276779,28.1868456 76.3784161,31.3331544 71.0887517,31.3331544 C68.6790872,31.3331544 65.7990872,30.7318121 63.9263356,29.7267114 L63.9263356,29.6601342 Z" id="Fill-1"></path>
            <path d="M21.3180134,30.7861477 C20.9164027,30.0044027 20.5341208,29.2548725 20.1776107,28.5397047 C19.2841879,26.7979597 18.502443,25.1872215 17.8323758,23.7139329 C17.1623087,22.2384966 16.6361342,20.9305772 16.2581477,19.7923221 C15.8758658,18.6519195 15.6868725,17.6919195 15.6868725,16.9080268 C15.6868725,16.1284295 15.9102282,15.602255 16.3569396,15.3337987 L16.3569396,15.2672215 L0.000429530201,15.2672215 L0.000429530201,15.3337987 C1.83237584,16.4054765 4.31291275,20.2282953 7.43989262,26.7979597 C8.60177181,29.2097718 9.98915436,32.1370201 11.597745,35.5797047 C13.2063356,39.0223893 15.1499597,43.2446711 17.4307651,48.248698 L17.5639195,48.248698 L22.8063356,33.5759463 C22.7612349,33.4900403 22.7032483,33.386953 22.6602953,33.301047 C22.1663356,32.4054765 21.7196242,31.5700403 21.3180134,30.7861477" id="Fill-3"></path>
            <path d="M38.4120268,15.2665772 L38.4120268,15.335302 C40.1559195,15.7820134 41.4853154,16.4628188 42.4002148,17.3777181 C43.3151141,18.2947651 43.9100134,19.4008054 44.1763221,20.6979866 C44.373906,21.6451007 44.7282685,23.3310067 43.8906846,28.0730201 C44.2471946,27.2719463 44.6165906,26.4773154 45.0160537,25.6912752 C45.888,23.9710067 46.7792752,22.418255 47.6963221,21.0308725 C48.6112215,19.6477852 49.5153826,18.4515436 50.4131007,17.446443 C51.3043758,16.4413423 52.1312215,15.7369128 52.8914899,15.335302 L52.8914899,15.2665772 L38.4120268,15.2665772 Z" id="Fill-5"></path>
            <path d="M40.9589262,34.7754094 C38.9487248,31.3799732 37.3057718,28.562255 36.0322148,26.3265503 C34.7586577,24.0929933 33.7191946,22.2159463 32.9138255,20.697557 C32.110604,19.1791678 31.4620134,17.9142013 30.972349,16.9091007 C30.4783893,15.904 30.0102013,14.9332617 29.5634899,13.9925906 L29.4969128,13.9925906 L24.7055034,27.5206443 C24.7591946,27.6108456 24.8193289,27.7139329 24.8708725,27.8019866 C26.9240268,31.3348725 28.6013423,34.2170201 29.8985235,36.4505772 C31.193557,38.6862819 32.245906,40.5311141 33.0491275,41.9807785 C33.8544966,43.4347383 34.4902013,44.618094 34.9605369,45.5329933 C35.4287248,46.4500403 35.8410738,47.3542013 36.1997315,48.2497718 L36.2663087,48.2497718 L41.1543624,35.1147383 C41.0920805,35.0052081 41.0190604,34.8806443 40.9589262,34.7754094" id="Fill-7"></path>
            <path d="M63.9263356,29.6601342 C64.9292886,29.9930201 65.8656644,30.1948993 66.7376107,30.1948993 C69.4157315,30.1948993 71.4903624,28.4531544 71.4903624,24.0354362 C71.4903624,17.205906 69.6841879,14.5299329 67.6074094,14.5299329 C64.5276779,14.5299329 62.6527785,20.2877852 62.6527785,30.1283221 C62.6527785,40.5057718 66.7376107,45.458255 72.5620403,45.458255 C76.1765369,45.458255 78.5862013,44.0536913 80.4611007,41.7793289 L80.5276779,41.845906 C79.1896913,44.7903356 75.1714362,48.2051007 67.7405638,48.2051007 C58.9029799,48.2051007 51.8758658,41.3755705 51.8758658,31.5350336 C51.8758658,22.965906 56.7617718,14.0595973 68.8122416,14.0595973 C75.1714362,14.0595973 80.5276779,16.7377181 80.5276779,22.7640268 C80.5276779,28.1868456 76.3784161,31.3331544 71.0887517,31.3331544 C68.6790872,31.3331544 65.7990872,30.7318121 63.9263356,29.7267114 L63.9263356,29.6601342 Z" id="Fill-9"></path>
            <path d="M113.070604,34.9495839 C113.006174,40.7074362 113.203758,45.6599195 117.155436,45.6599195 L117.155436,45.7286443 C114.679195,47.1997852 110.929396,48.2048859 108.586309,48.2048859 C105.171544,48.2048859 102.426846,46.130255 102.426846,38.0293154 L102.426846,28.3863624 C101.690201,28.2532081 100.820403,28.1887785 100.28349,28.1887785 C97.3390604,28.1887785 94.7275168,30.598443 94.7275168,37.6277047 C94.7275168,42.4470336 96.3339597,44.992 98.7436242,44.992 C100.350067,44.992 101.557047,43.9203221 101.95651,42.112 L102.023087,42.112 C101.756779,45.5933423 99.2139597,48.2048859 93.9908725,48.2048859 C88.0998658,48.2048859 84.2834899,44.7235436 84.2834899,38.7638121 C84.2834899,30.7315973 89.6397315,27.5831409 97.2724832,27.5831409 C99.3449664,27.5831409 100.953557,27.7850201 102.426846,28.0534765 L102.426846,25.9101208 C102.426846,19.8172349 99.5468456,16.8728054 94.929396,16.8728054 C91.5146309,16.8728054 88.9030872,18.0089128 86.7597315,20.6204564 L86.7597315,20.5538792 C88.4327517,16.8728054 93.9908725,14.1281074 99.7487248,14.1281074 C107.71651,14.1281074 113.070604,18.2107919 113.070604,25.3753557 L113.070604,34.9495839 Z" id="Fill-11"></path>
            <path d="M133.481664,25.0398926 C134.486765,18.4788188 137.90153,13.6594899 142.922738,13.6594899 C144.728913,13.6594899 146.135624,14.2608322 147.407034,15.2659329 L144.393879,27.9198926 L144.327302,27.9198926 C143.457503,23.8350604 140.912537,21.6251275 138.502872,21.6251275 C136.026631,21.6251275 133.415087,22.9652617 133.415087,29.0581477 L133.415087,31.4012349 C133.415087,39.9703624 133.750121,46.4648591 135.957906,47.4678121 L135.957906,47.5365369 L120.761128,47.5365369 L120.761128,47.4678121 C122.968913,46.4648591 123.306094,39.9703624 123.306094,31.4012349 C123.306094,20.4890201 122.771329,16.4707651 117.949852,16.4707651 L117.949852,16.4041879 C120.761128,14.8643221 124.84596,13.9923758 127.388779,13.9923758 C131.606765,13.9923758 133.415087,16.3354631 133.415087,25.0398926 L133.481664,25.0398926 Z" id="Fill-13"></path>
            <path d="M165.432268,47.8041342 C167.977235,47.8041342 169.383946,44.0543356 169.383946,32.7383624 C169.383946,20.8231946 167.240591,14.5950067 163.690523,14.5950067 C161.280859,14.5950067 159.743141,17.6081611 159.743141,28.9907114 C159.743141,41.109906 161.950926,47.8041342 165.432268,47.8041342 M164.362738,48.205745 C155.121396,48.205745 148.964081,40.4376913 148.964081,30.9987651 C148.964081,21.5576913 155.45643,14.1268188 165.099383,14.1268188 C175.006497,14.1268188 180.027705,22.0280268 180.027705,30.6658792 C180.027705,40.0382282 173.936966,48.205745 164.362738,48.205745" id="Fill-15"></path>
            <path d="M183.393718,47.4684564 C185.603651,46.4633557 185.938685,39.9710067 185.938685,26.5138255 C185.938685,11.6499329 185.672376,5.96080537 183.662174,4.41879195 L183.662174,4.35221477 L197.656268,1.87597315 L197.722846,1.94255034 C196.049826,7.56724832 195.914523,15.8013423 195.914523,26.5138255 C195.914523,39.9710067 196.247409,46.4633557 198.45949,47.4684564 L198.45949,47.5350336 L183.393718,47.5350336 L183.393718,47.4684564 Z" id="Fill-17"></path>
            <path d="M218.221745,47.8041342 C220.766711,47.8041342 222.173423,44.0543356 222.173423,32.7383624 C222.173423,20.8231946 220.030067,14.5950067 216.48,14.5950067 C214.070336,14.5950067 212.532617,17.6081611 212.532617,28.9907114 C212.532617,41.109906 214.740403,47.8041342 218.221745,47.8041342 M217.152215,48.205745 C207.910872,48.205745 201.753557,40.4376913 201.753557,30.9987651 C201.753557,21.5576913 208.245906,14.1268188 217.888859,14.1268188 C227.795973,14.1268188 232.817181,22.0280268 232.817181,30.6658792 C232.817181,40.0382282 226.726443,48.205745 217.152215,48.205745" id="Fill-19"></path>
            <path d="M284.580725,15.2663624 C284.179114,16.739651 283.844081,22.8303893 283.844081,31.4016644 C283.844081,39.9707919 284.179114,46.4631409 286.389047,47.4682416 L286.389047,47.5348188 L271.325423,47.5348188 L271.325423,47.4682416 C273.533208,46.4631409 273.870389,39.9707919 273.870389,31.4016644 C273.870389,22.8303893 273.533208,16.3358926 271.325423,15.3329396 L271.325423,15.1997852 L284.580725,15.1997852 L284.580725,15.2663624 Z M246.820725,22.8991141 C246.820725,30.6650201 248.830926,34.4126711 251.841933,34.4126711 C254.118443,34.4126711 255.45643,32.3380403 255.45643,25.8435436 C255.45643,18.0089128 253.514953,14.4631409 250.437369,14.4631409 C248.296161,14.4631409 246.820725,16.2048859 246.820725,22.8991141 L246.820725,22.8991141 Z M265.767302,24.4389799 C265.767302,30.9313289 260.280054,34.8830067 250.972134,34.8830067 C247.424215,34.8830067 244.544215,34.2795168 242.334282,33.2765638 C240.996295,34.0132081 240.863141,34.7477047 240.863141,35.0848859 C240.863141,36.9576376 244.812671,37.6277047 253.248644,38.6306577 C261.416161,39.5670336 268.312268,42.4470336 268.312268,49.6115973 C268.312268,55.8376376 263.357638,60.9254228 249.700725,60.9254228 C240.126497,60.9254228 235.171866,58.1141477 235.171866,54.0293154 C235.171866,50.481396 239.121396,48.2048859 245.280859,47.9385772 L245.280859,48.0030067 C242.669315,48.7417987 240.794416,50.6145503 240.794416,53.8295839 C240.794416,57.7125369 244.544215,60.5903893 249.833879,60.5903893 C255.993342,60.5903893 258.538309,58.1141477 258.538309,54.2311946 C258.538309,49.0746846 253.650255,48.2048859 248.964081,47.4016644 C242.269852,46.2634094 236.176966,45.1251544 236.176966,40.1039463 C236.176966,36.757906 238.919517,34.0797852 241.934819,33.0746846 C238.318174,31.2663624 236.509852,28.1887785 236.509852,24.5721342 C236.509852,18.2107919 242.001396,14.0593826 251.240591,14.0593826 C254.118443,14.0593826 256.596832,14.5297181 258.671463,15.2663624 C254.586631,13.0564295 252.176966,10.112 252.176966,6.42877852 C252.176966,2.41267114 255.389852,0.000859060403 259.408107,0.000859060403 C268.514148,0.000859060403 268.043812,10.5114631 276.280054,11.7850201 C273.735087,11.1128054 271.99549,9.30877852 271.99549,6.76381208 C271.99549,3.68193289 274.740188,1.54072483 278.487839,1.54072483 C281.969181,1.54072483 284.782604,3.68193289 284.782604,6.76381208 C284.782604,9.97669799 281.969181,12.0513289 278.487839,12.0513289 L278.019651,12.0513289 C268.176966,12.0513289 268.849181,4.95548993 261.416161,4.95548993 C258.33643,4.95548993 256.46153,7.09669799 256.46153,9.84354362 C256.46153,12.9211275 258.33643,14.8647517 261.01455,16.4024698 C264.094282,18.2773691 265.767302,21.1573691 265.767302,24.4389799 L265.767302,24.4389799 Z" id="Fill-21"></path>
            <path d="M301.694711,29.6601342 C302.697664,29.9930201 303.63404,30.1948993 304.505987,30.1948993 C307.184107,30.1948993 309.258738,28.4531544 309.258738,24.0354362 C309.258738,17.205906 307.452564,14.5299329 305.375785,14.5299329 C302.296054,14.5299329 300.421154,20.2877852 300.421154,30.1283221 C300.421154,40.5057718 304.505987,45.458255 310.330416,45.458255 C313.944913,45.458255 316.354577,44.0536913 318.229477,41.7793289 L318.296054,41.845906 C316.958067,44.7903356 312.939812,48.2051007 305.50894,48.2051007 C296.671356,48.2051007 289.644242,41.3755705 289.644242,31.5350336 C289.644242,22.965906 294.530148,14.0595973 306.580617,14.0595973 C312.939812,14.0595973 318.296054,16.7377181 318.296054,22.7640268 C318.296054,28.1868456 314.146792,31.3331544 308.857128,31.3331544 C306.447463,31.3331544 303.567463,30.7318121 301.694711,29.7267114 L301.694711,29.6601342 Z" id="Fill-23"></path>
            <polygon id="Fill-25" points="0.967087248 95.7424966 0.967087248 79.8004832 10.691651 79.8004832 10.691651 81.9395436 3.40467114 81.9395436 3.40467114 86.4496107 10.691651 86.4496107 10.691651 88.5908188 3.40467114 88.5908188 3.40467114 93.6012886 10.691651 93.6012886 10.691651 95.7424966"></polygon>
            <polygon id="Fill-27" points="20.3167785 95.7424966 20.3167785 79.8004832 22.7543624 79.8004832 22.7543624 93.6012886 29.5860403 93.6012886 29.5860403 95.7424966"></polygon>
            <polygon id="Fill-29" points="37.9133423 95.7424966 37.9133423 79.8004832 47.637906 79.8004832 47.637906 81.9395436 40.3509262 81.9395436 40.3509262 86.4496107 47.637906 86.4496107 47.637906 88.5908188 40.3509262 88.5908188 40.3509262 93.6012886 47.637906 93.6012886 47.637906 95.7424966"></polygon>
            <polygon id="Fill-31" points="66.6046711 95.7424966 64.8951409 95.7424966 59.7021208 82.7148456 59.7021208 95.7424966 57.2645369 95.7424966 57.2645369 79.8004832 61.0465503 79.8004832 65.7606443 91.9390067 70.5670872 79.8004832 74.3254765 79.8004832 74.3254765 95.7424966 71.8878926 95.7424966 71.8878926 82.7148456"></polygon>
            <polygon id="Fill-33" points="84.6058523 95.7424966 84.6058523 79.8004832 94.3304161 79.8004832 94.3304161 81.9395436 87.0434362 81.9395436 87.0434362 86.4496107 94.3304161 86.4496107 94.3304161 88.5908188 87.0434362 88.5908188 87.0434362 93.6012886 94.3304161 93.6012886 94.3304161 95.7424966"></polygon>
            <polygon id="Fill-35" points="114.796671 95.7424966 106.392913 84.3084027 106.392913 95.7424966 103.955329 95.7424966 103.955329 79.8004832 106.096537 79.8004832 114.523919 91.2324295 114.523919 79.8004832 116.961503 79.8004832 116.961503 95.7424966"></polygon>
            <polygon id="Fill-37" points="131.95898 81.9399732 131.95898 95.7429262 129.521396 95.7429262 129.521396 81.9399732 125.561128 81.9399732 125.561128 79.7987651 135.923544 79.7987651 135.923544 81.9399732"></polygon>
            <path d="M149.375141,81.6904161 C147.824537,81.6904161 146.709906,82.4184698 146.709906,83.7392752 C146.709906,85.0837047 148.189638,85.5626309 149.830443,86.1317584 C152.085477,86.9049128 154.750711,87.9293423 154.750711,91.0498792 C154.750711,94.6042416 151.56145,96.0152483 149.057289,96.0152483 C146.686282,96.0152483 144.910174,95.242094 143.202792,93.5561879 L144.910174,91.9390067 C146.346953,93.3736376 147.461584,93.8525638 149.078765,93.8525638 C150.627221,93.8525638 152.154201,93.1008859 152.154201,91.2775302 C152.154201,89.6152483 150.491919,89.0246443 148.713664,88.4082685 C146.55098,87.6351141 144.272322,86.5634362 144.272322,83.9454497 C144.272322,80.9387383 146.55098,79.5255839 149.14749,79.5255839 C151.106148,79.5255839 152.699705,80.0947114 154.179436,81.2351141 L152.699705,82.9875973 C151.924403,82.2810201 150.627221,81.6904161 149.375141,81.6904161" id="Fill-39"></path>
            <path d="M183.613852,81.6904161 C180.334389,81.6904161 177.96553,84.355651 177.96553,87.7704161 C177.96553,91.1873289 180.334389,93.8525638 183.613852,93.8525638 C186.893315,93.8525638 189.262174,91.1873289 189.262174,87.7704161 C189.262174,84.355651 186.893315,81.6904161 183.613852,81.6904161 M183.613852,96.0152483 C178.944859,96.0152483 175.36902,92.3255839 175.36902,87.7704161 C175.36902,83.2152483 178.944859,79.5255839 183.613852,79.5255839 C188.282846,79.5255839 191.858685,83.2152483 191.858685,87.7704161 C191.858685,92.3255839 188.282846,96.0152483 183.613852,96.0152483" id="Fill-41"></path>
            <polygon id="Fill-43" points="203.804779 89.0235705 203.804779 95.7414228 201.367195 95.7414228 201.367195 79.7994094 209.635651 79.7994094 209.635651 81.9406174 203.804779 81.9406174 203.804779 86.8823624 209.635651 86.8823624 209.635651 89.0235705"></polygon>
            <path d="M235.744644,81.6904161 C234.19404,81.6904161 233.079409,82.4184698 233.079409,83.7392752 C233.079409,85.0837047 234.559141,85.5626309 236.199946,86.1317584 C238.45498,86.9049128 241.120215,87.9293423 241.120215,91.0498792 C241.120215,94.6042416 237.930953,96.0152483 235.426792,96.0152483 C233.055785,96.0152483 231.279678,95.242094 229.572295,93.5561879 L231.279678,91.9390067 C232.716456,93.3736376 233.831087,93.8525638 235.448268,93.8525638 C236.996725,93.8525638 238.523705,93.1008859 238.523705,91.2775302 C238.523705,89.6152483 236.861423,89.0246443 235.083168,88.4082685 C232.920483,87.6351141 230.641826,86.5634362 230.641826,83.9454497 C230.641826,80.9387383 232.920483,79.5255839 235.516993,79.5255839 C237.475651,79.5255839 239.069208,80.0947114 240.54894,81.2351141 L239.069208,82.9875973 C238.293906,82.2810201 236.996725,81.6904161 235.744644,81.6904161" id="Fill-45"></path>
            <polygon id="Fill-47" points="255.390282 81.9399732 255.390282 95.7429262 252.952698 95.7429262 252.952698 81.9399732 248.99243 81.9399732 248.99243 79.7987651 259.354846 79.7987651 259.354846 81.9399732"></polygon>
            <polygon id="Fill-49" points="272.212832 95.7424966 272.212832 88.8635705 267.133638 79.8004832 270.163973 79.8004832 273.533638 86.2670604 273.580886 86.2670604 276.995651 79.8004832 279.843436 79.8004832 274.650416 88.9795436 274.650416 95.7424966"></polygon>
            <polygon id="Fill-51" points="288.395597 95.7424966 288.395597 79.8004832 290.833181 79.8004832 290.833181 93.6012886 297.664859 93.6012886 297.664859 95.7424966"></polygon>
            <polygon id="Fill-53" points="305.994309 95.7424966 305.994309 79.8004832 315.718872 79.8004832 315.718872 81.9395436 308.431893 81.9395436 308.431893 86.4496107 315.718872 86.4496107 315.718872 88.5908188 308.431893 88.5908188 308.431893 93.6012886 315.718872 93.6012886 315.718872 95.7424966"></polygon>
        </g>
    </g>
</svg>